<mxfile host="app.diagrams.net" agent="Mozilla/5.0 (Windows NT 10.0; Win64; x64) AppleWebKit/537.36 (KHTML, like Gecko) Chrome/135.0.0.0 Safari/537.36" version="26.2.13">
  <diagram name="UseCase №3 (Sequence)" id="mkXa1E81WtFQ-839lmC2">
    <mxGraphModel dx="1491" dy="764" grid="1" gridSize="10" guides="1" tooltips="1" connect="1" arrows="1" fold="1" page="1" pageScale="1" pageWidth="1169" pageHeight="827" math="0" shadow="0">
      <root>
        <mxCell id="0" />
        <mxCell id="1" parent="0" />
        <mxCell id="OfUyo-4o_wCKo1zt2xd8-1" value="" style="shape=umlLifeline;perimeter=lifelinePerimeter;whiteSpace=wrap;html=1;container=1;dropTarget=0;collapsible=0;recursiveResize=0;outlineConnect=0;portConstraint=eastwest;newEdgeStyle={&quot;curved&quot;:0,&quot;rounded&quot;:0};participant=umlActor;fontSize=15;labelBackgroundColor=default;fontColor=light-dark(#000000,#FFFFFF);" vertex="1" parent="1">
          <mxGeometry x="70" y="40" width="20" height="480" as="geometry" />
        </mxCell>
        <mxCell id="OfUyo-4o_wCKo1zt2xd8-2" value="Інтерфейс моніторингу" style="shape=umlLifeline;perimeter=lifelinePerimeter;whiteSpace=wrap;html=1;container=1;dropTarget=0;collapsible=0;recursiveResize=0;outlineConnect=0;portConstraint=eastwest;newEdgeStyle={&quot;curved&quot;:0,&quot;rounded&quot;:0};" vertex="1" parent="1">
          <mxGeometry x="160" y="40" width="100" height="480" as="geometry" />
        </mxCell>
        <mxCell id="OfUyo-4o_wCKo1zt2xd8-3" value="" style="html=1;points=[[0,0,0,0,5],[0,1,0,0,-5],[1,0,0,0,5],[1,1,0,0,-5]];perimeter=orthogonalPerimeter;outlineConnect=0;targetShapes=umlLifeline;portConstraint=eastwest;newEdgeStyle={&quot;curved&quot;:0,&quot;rounded&quot;:0};" vertex="1" parent="OfUyo-4o_wCKo1zt2xd8-2">
          <mxGeometry x="45" y="300" width="10" height="80" as="geometry" />
        </mxCell>
        <mxCell id="OfUyo-4o_wCKo1zt2xd8-4" value="" style="html=1;points=[[0,0,0,0,5],[0,1,0,0,-5],[1,0,0,0,5],[1,1,0,0,-5]];perimeter=orthogonalPerimeter;outlineConnect=0;targetShapes=umlLifeline;portConstraint=eastwest;newEdgeStyle={&quot;curved&quot;:0,&quot;rounded&quot;:0};" vertex="1" parent="OfUyo-4o_wCKo1zt2xd8-2">
          <mxGeometry x="45" y="400" width="10" height="80" as="geometry" />
        </mxCell>
        <mxCell id="OfUyo-4o_wCKo1zt2xd8-5" value="Модуль прогнозу погоди" style="shape=umlLifeline;perimeter=lifelinePerimeter;whiteSpace=wrap;html=1;container=1;dropTarget=0;collapsible=0;recursiveResize=0;outlineConnect=0;portConstraint=eastwest;newEdgeStyle={&quot;curved&quot;:0,&quot;rounded&quot;:0};" vertex="1" parent="1">
          <mxGeometry x="320" y="40" width="120" height="480" as="geometry" />
        </mxCell>
        <mxCell id="OfUyo-4o_wCKo1zt2xd8-6" value="" style="html=1;points=[[0,0,0,0,5],[0,1,0,0,-5],[1,0,0,0,5],[1,1,0,0,-5]];perimeter=orthogonalPerimeter;outlineConnect=0;targetShapes=umlLifeline;portConstraint=eastwest;newEdgeStyle={&quot;curved&quot;:0,&quot;rounded&quot;:0};" vertex="1" parent="OfUyo-4o_wCKo1zt2xd8-5">
          <mxGeometry x="55" y="60" width="10" height="210" as="geometry" />
        </mxCell>
        <mxCell id="OfUyo-4o_wCKo1zt2xd8-7" value="Метеорологічні служби" style="shape=umlLifeline;perimeter=lifelinePerimeter;whiteSpace=wrap;html=1;container=1;dropTarget=0;collapsible=0;recursiveResize=0;outlineConnect=0;portConstraint=eastwest;newEdgeStyle={&quot;curved&quot;:0,&quot;rounded&quot;:0};" vertex="1" parent="1">
          <mxGeometry x="480" y="40" width="100" height="480" as="geometry" />
        </mxCell>
        <mxCell id="OfUyo-4o_wCKo1zt2xd8-8" value="" style="html=1;points=[[0,0,0,0,5],[0,1,0,0,-5],[1,0,0,0,5],[1,1,0,0,-5]];perimeter=orthogonalPerimeter;outlineConnect=0;targetShapes=umlLifeline;portConstraint=eastwest;newEdgeStyle={&quot;curved&quot;:0,&quot;rounded&quot;:0};" vertex="1" parent="OfUyo-4o_wCKo1zt2xd8-7">
          <mxGeometry x="45" y="80" width="10" height="50" as="geometry" />
        </mxCell>
        <mxCell id="OfUyo-4o_wCKo1zt2xd8-9" value="Модуль аналізу ризиків" style="shape=umlLifeline;perimeter=lifelinePerimeter;whiteSpace=wrap;html=1;container=1;dropTarget=0;collapsible=0;recursiveResize=0;outlineConnect=0;portConstraint=eastwest;newEdgeStyle={&quot;curved&quot;:0,&quot;rounded&quot;:0};" vertex="1" parent="1">
          <mxGeometry x="640" y="40" width="100" height="480" as="geometry" />
        </mxCell>
        <mxCell id="OfUyo-4o_wCKo1zt2xd8-10" value="" style="html=1;points=[[0,0,0,0,5],[0,1,0,0,-5],[1,0,0,0,5],[1,1,0,0,-5]];perimeter=orthogonalPerimeter;outlineConnect=0;targetShapes=umlLifeline;portConstraint=eastwest;newEdgeStyle={&quot;curved&quot;:0,&quot;rounded&quot;:0};" vertex="1" parent="OfUyo-4o_wCKo1zt2xd8-9">
          <mxGeometry x="45" y="160" width="10" height="130" as="geometry" />
        </mxCell>
        <mxCell id="OfUyo-4o_wCKo1zt2xd8-11" style="edgeStyle=orthogonalEdgeStyle;rounded=0;orthogonalLoop=1;jettySize=auto;html=1;curved=0;exitX=1;exitY=0;exitDx=0;exitDy=5;exitPerimeter=0;fontSize=15;textShadow=0;" edge="1" parent="OfUyo-4o_wCKo1zt2xd8-9" source="OfUyo-4o_wCKo1zt2xd8-10" target="OfUyo-4o_wCKo1zt2xd8-10">
          <mxGeometry relative="1" as="geometry" />
        </mxCell>
        <mxCell id="OfUyo-4o_wCKo1zt2xd8-12" value="Коригування маршрутів" style="shape=umlLifeline;perimeter=lifelinePerimeter;whiteSpace=wrap;html=1;container=1;dropTarget=0;collapsible=0;recursiveResize=0;outlineConnect=0;portConstraint=eastwest;newEdgeStyle={&quot;curved&quot;:0,&quot;rounded&quot;:0};" vertex="1" parent="1">
          <mxGeometry x="800" y="40" width="100" height="480" as="geometry" />
        </mxCell>
        <mxCell id="OfUyo-4o_wCKo1zt2xd8-13" value="" style="html=1;points=[[0,0,0,0,5],[0,1,0,0,-5],[1,0,0,0,5],[1,1,0,0,-5]];perimeter=orthogonalPerimeter;outlineConnect=0;targetShapes=umlLifeline;portConstraint=eastwest;newEdgeStyle={&quot;curved&quot;:0,&quot;rounded&quot;:0};" vertex="1" parent="OfUyo-4o_wCKo1zt2xd8-12">
          <mxGeometry x="45" y="400" width="10" height="80" as="geometry" />
        </mxCell>
        <mxCell id="OfUyo-4o_wCKo1zt2xd8-14" value="Активація модуля" style="html=1;verticalAlign=bottom;startArrow=oval;endArrow=block;startSize=8;curved=0;rounded=0;entryX=0;entryY=0;entryDx=0;entryDy=5;" edge="1" parent="1" source="OfUyo-4o_wCKo1zt2xd8-1" target="OfUyo-4o_wCKo1zt2xd8-6">
          <mxGeometry relative="1" as="geometry">
            <mxPoint x="305" y="105" as="sourcePoint" />
          </mxGeometry>
        </mxCell>
        <mxCell id="OfUyo-4o_wCKo1zt2xd8-15" value="" style="html=1;verticalAlign=bottom;endArrow=open;dashed=1;endSize=8;curved=0;rounded=0;exitX=0;exitY=1;exitDx=0;exitDy=-5;" edge="1" parent="1" source="OfUyo-4o_wCKo1zt2xd8-8" target="OfUyo-4o_wCKo1zt2xd8-6">
          <mxGeometry relative="1" as="geometry">
            <mxPoint x="455" y="195" as="targetPoint" />
          </mxGeometry>
        </mxCell>
        <mxCell id="OfUyo-4o_wCKo1zt2xd8-16" value="Запит для отримання даних" style="html=1;verticalAlign=bottom;endArrow=block;curved=0;rounded=0;entryX=0;entryY=0;entryDx=0;entryDy=5;" edge="1" parent="1" source="OfUyo-4o_wCKo1zt2xd8-5" target="OfUyo-4o_wCKo1zt2xd8-8">
          <mxGeometry relative="1" as="geometry">
            <mxPoint x="455" y="125" as="sourcePoint" />
          </mxGeometry>
        </mxCell>
        <mxCell id="OfUyo-4o_wCKo1zt2xd8-17" value="Запит на аналіз ризиків" style="html=1;verticalAlign=bottom;endArrow=block;curved=0;rounded=0;entryX=0;entryY=0;entryDx=0;entryDy=5;" edge="1" parent="1" source="OfUyo-4o_wCKo1zt2xd8-5" target="OfUyo-4o_wCKo1zt2xd8-10">
          <mxGeometry relative="1" as="geometry">
            <mxPoint x="615" y="205" as="sourcePoint" />
          </mxGeometry>
        </mxCell>
        <mxCell id="OfUyo-4o_wCKo1zt2xd8-18" value="" style="html=1;verticalAlign=bottom;endArrow=open;dashed=1;endSize=8;curved=0;rounded=0;exitX=0;exitY=1;exitDx=0;exitDy=-5;" edge="1" parent="1">
          <mxGeometry relative="1" as="geometry">
            <mxPoint x="77.29090909090901" y="320" as="targetPoint" />
            <mxPoint x="682.7" y="320" as="sourcePoint" />
          </mxGeometry>
        </mxCell>
        <mxCell id="OfUyo-4o_wCKo1zt2xd8-19" value="Результати аналізу" style="edgeLabel;html=1;align=center;verticalAlign=middle;resizable=0;points=[];" vertex="1" connectable="0" parent="OfUyo-4o_wCKo1zt2xd8-18">
          <mxGeometry x="0.7733" y="-1" relative="1" as="geometry">
            <mxPoint x="44" y="-9" as="offset" />
          </mxGeometry>
        </mxCell>
        <mxCell id="OfUyo-4o_wCKo1zt2xd8-20" value="&lt;font style=&quot;font-size: 7px;&quot;&gt;Обробка ризиків&lt;/font&gt;" style="text;strokeColor=none;fillColor=none;align=left;verticalAlign=middle;spacingLeft=4;spacingRight=4;overflow=hidden;points=[[0,0.5],[1,0.5]];portConstraint=eastwest;rotatable=0;whiteSpace=wrap;html=1;" vertex="1" parent="1">
          <mxGeometry x="720" y="210" width="90" height="30" as="geometry" />
        </mxCell>
        <mxCell id="OfUyo-4o_wCKo1zt2xd8-21" value="Сповіщення про ризики" style="html=1;verticalAlign=bottom;endArrow=block;curved=0;rounded=0;entryX=0;entryY=0;entryDx=0;entryDy=5;" edge="1" parent="1" source="OfUyo-4o_wCKo1zt2xd8-1" target="OfUyo-4o_wCKo1zt2xd8-3">
          <mxGeometry relative="1" as="geometry">
            <mxPoint x="135" y="345" as="sourcePoint" />
          </mxGeometry>
        </mxCell>
        <mxCell id="OfUyo-4o_wCKo1zt2xd8-22" value="Перегляд сповіщення&amp;nbsp;" style="html=1;verticalAlign=bottom;endArrow=open;dashed=1;endSize=8;curved=0;rounded=0;exitX=0;exitY=1;exitDx=0;exitDy=-5;" edge="1" parent="1" source="OfUyo-4o_wCKo1zt2xd8-3" target="OfUyo-4o_wCKo1zt2xd8-1">
          <mxGeometry relative="1" as="geometry">
            <mxPoint x="135" y="415" as="targetPoint" />
          </mxGeometry>
        </mxCell>
        <mxCell id="OfUyo-4o_wCKo1zt2xd8-23" value="Пропозиції коригування" style="html=1;verticalAlign=bottom;startArrow=oval;endArrow=block;startSize=8;curved=0;rounded=0;entryX=0;entryY=0;entryDx=0;entryDy=5;" edge="1" parent="1" source="OfUyo-4o_wCKo1zt2xd8-1" target="OfUyo-4o_wCKo1zt2xd8-4">
          <mxGeometry relative="1" as="geometry">
            <mxPoint x="135" y="445" as="sourcePoint" />
          </mxGeometry>
        </mxCell>
        <mxCell id="OfUyo-4o_wCKo1zt2xd8-24" value="Дані про оновлені маршрути" style="html=1;verticalAlign=bottom;endArrow=block;curved=0;rounded=0;entryX=0;entryY=0;entryDx=0;entryDy=5;" edge="1" parent="1" source="OfUyo-4o_wCKo1zt2xd8-2" target="OfUyo-4o_wCKo1zt2xd8-13">
          <mxGeometry relative="1" as="geometry">
            <mxPoint x="770" y="440" as="sourcePoint" />
          </mxGeometry>
        </mxCell>
        <mxCell id="OfUyo-4o_wCKo1zt2xd8-25" value="Відповідь про отримання оновлених даних" style="html=1;verticalAlign=bottom;endArrow=open;dashed=1;endSize=8;curved=0;rounded=0;exitX=0;exitY=1;exitDx=0;exitDy=-5;" edge="1" parent="1" source="OfUyo-4o_wCKo1zt2xd8-13" target="OfUyo-4o_wCKo1zt2xd8-2">
          <mxGeometry relative="1" as="geometry">
            <mxPoint x="775" y="515" as="targetPoint" />
          </mxGeometry>
        </mxCell>
      </root>
    </mxGraphModel>
  </diagram>
</mxfile>
